<?xml version="1.0" encoding="UTF-8"?>
<svg xmlns="http://www.w3.org/2000/svg" version="1.1" viewBox="0 0 418 77.7">
  <defs>
    <style>
      .cls-1 {
        fill: #dceeed;
      }

      .cls-2 {
        fill: #b9dcd6;
      }

      .cls-3 {
        fill: #65b99c;
      }

      .cls-4 {
        isolation: isolate;
      }
    </style>
  </defs>
  <!-- Generator: Adobe Illustrator 28.7.1, SVG Export Plug-In . SVG Version: 1.2.0 Build 142)  -->
  <g>
    <g id="Layer_1">
      <g>
        <g>
          <path class="cls-1" d="M66.6,17.7c0,4.7-1.8,9.2-5.2,12.5l-.5.5c-.2.2-.4.3-.5.4L14.4,71h5.5l46.1-39.9c0,0,.3-.2.5-.4l.5-.5c6.9-6.9,6.9-18.1,0-25C62.8,1,57.1-.6,51.7.2c3.6.6,7,2.2,9.7,4.9,3.3,3.3,5.2,7.8,5.2,12.5Z"/>
          <path class="cls-1" d="M95.5,67.7l-26.5-22.9c-1.4-1.2-3.5-1.1-4.7.3,0,0,0,.1-.1.2l25.8,22.4c1.8,1.5,2.4,4,1.6,6.2-.8,2.2-2.9,3.7-5.3,3.7h5.5c2.4,0,4.5-1.5,5.3-3.7.8-2.2.2-4.7-1.6-6.2Z"/>
          <path class="cls-1" d="M41.2,9.9c-3.7,3.7-4.3,9.5-1.4,13.8.8,1.2.7,2.7,0,3.7,1,1.5,3.1,1.9,4.6.9,1.5-1,2-3.1,1-4.6-2.9-4.3-2.3-10.1,1.4-13.8.6-.6,1.3-1.2,2-1.6-.9-.5-1.8-.9-2.8-1.2-1.8.5-3.4,1.4-4.8,2.8Z"/>
          <path class="cls-2" d="M91.6,74c.8-2.2.2-4.7-1.6-6.2l-25.8-22.4-.6-.5c-1.4-1.2-3.5-1.1-4.7.3-.1.1-.2.3-.3.4l25.6,22.1c1.8,1.5,2.4,4,1.6,6.2-.8,2.2-2.9,3.7-5.3,3.7h5.9c2.4,0,4.5-1.5,5.3-3.7Z"/>
          <path class="cls-2" d="M55.5,5.2c6.9,6.9,6.9,18.1,0,25l-.5.5c-.2.2-.4.3-.5.4L8.4,71h5.9L60.4,31.1c0,0,.3-.2.5-.4l.5-.5c3.3-3.3,5.2-7.8,5.2-12.5s-1.8-9.2-5.2-12.5c-2.7-2.7-6.2-4.4-9.7-4.9-1.9-.3-3.8-.3-5.7,0,3.5.6,6.8,2.2,9.5,4.9Z"/>
          <path class="cls-2" d="M39.8,23.7c-2.9-4.3-2.3-10.1,1.4-13.8s3-2.3,4.8-2.8c-3.7-1-7.8,0-10.7,2.8-3.7,3.7-4.3,9.5-1.4,13.8.7,1.1.7,2.4.1,3.4,0,0,.1.2.2.3,1,1.5,3.1,2,4.6,1,.4-.2.7-.6.9-.9.8-1.1.8-2.6,0-3.7Z"/>
          <path class="cls-3" d="M85.7,74c.8-2.2.2-4.7-1.6-6.2l-25.6-22.1-.9-.8c-1.4-1.2-3.5-1.1-4.7.3-1.2,1.4-1.1,3.5.3,4.7l24.4,21.1H8.4L54.5,31.1c0,0,.3-.2.5-.4l.5-.5c6.9-6.9,6.9-18.1,0-25-2.7-2.7-6-4.3-9.5-4.9-5.5-.9-11.3.7-15.4,4.9-5.9,5.9-6.9,15.3-2.3,22.2,1,1.5,3.1,2,4.6,1,.5-.3.8-.8,1.1-1.2.6-1,.5-2.4-.1-3.4-2.9-4.3-2.3-10.1,1.4-13.8,2.9-2.9,7-3.8,10.7-2.8,1,.3,1.9.7,2.8,1.2.7.4,1.4,1,2.1,1.6,4.3,4.3,4.3,11.2,0,15.5l-.3.3c-.1,0-.2.2-.2.2L2,67.7c-1.8,1.6-2.4,4-1.6,6.3.8,2.2,2.9,3.7,5.3,3.7h74.7c2.4,0,4.5-1.5,5.3-3.7Z"/>
        </g>
        <g class="cls-4">
          <g class="cls-4">
            <path class="cls-3" d="M116.5,57.9V24.3h10.3c2.9,0,5.6.7,7.9,2s4.1,3.2,5.5,5.7c1.3,2.5,2,5.2,2,8.4v1.5c0,3.1-.6,5.9-1.9,8.3s-3.1,4.3-5.4,5.6c-2.3,1.3-5,2-7.9,2h-10.4ZM123.5,29.9v22.4h3.3c2.7,0,4.8-.9,6.2-2.7,1.4-1.8,2.2-4.3,2.2-7.6v-1.8c0-3.4-.7-6-2.1-7.8-1.4-1.8-3.5-2.6-6.2-2.6h-3.4Z"/>
            <path class="cls-3" d="M145.7,45.2c0-2.5.5-4.7,1.4-6.6,1-1.9,2.3-3.4,4.1-4.5,1.8-1.1,3.9-1.6,6.2-1.6,3.4,0,6.1,1,8.2,3.1,2.1,2.1,3.3,4.9,3.6,8.4v1.7c0,3.8-1,6.9-3.2,9.2s-5,3.5-8.6,3.5-6.5-1.2-8.6-3.5c-2.1-2.3-3.2-5.4-3.2-9.4v-.3ZM152.4,45.7c0,2.4.4,4.2,1.3,5.4.9,1.3,2.2,1.9,3.8,1.9s2.9-.6,3.8-1.9c.9-1.2,1.4-3.2,1.4-5.9s-.5-4.1-1.4-5.4c-.9-1.3-2.2-1.9-3.8-1.9s-2.9.6-3.8,1.9c-.9,1.3-1.3,3.2-1.3,5.9Z"/>
            <path class="cls-3" d="M195.9,45.7c0,3.8-.9,6.9-2.6,9.2-1.7,2.3-4.1,3.5-7.1,3.5s-4.6-.9-6.1-2.6v11.8h-6.7v-34.5h6.2l.2,2.4c1.6-1.9,3.7-2.9,6.3-2.9s5.5,1.1,7.2,3.4c1.7,2.3,2.6,5.4,2.6,9.4v.3ZM189.2,45.2c0-2.3-.4-4.1-1.2-5.4-.8-1.3-2-1.9-3.6-1.9s-3.5.8-4.3,2.4v10.2c.8,1.6,2.3,2.5,4.4,2.5,3.2,0,4.8-2.6,4.8-7.8Z"/>
            <path class="cls-3" d="M222.5,45.7c0,3.8-.9,6.9-2.6,9.2s-4.1,3.5-7.1,3.5-4.6-.9-6.1-2.6v11.8h-6.7v-34.5h6.2l.2,2.4c1.6-1.9,3.7-2.9,6.3-2.9s5.5,1.1,7.2,3.4c1.7,2.3,2.6,5.4,2.6,9.4v.3ZM215.8,45.2c0-2.3-.4-4.1-1.2-5.4-.8-1.3-2-1.9-3.6-1.9s-3.5.8-4.3,2.4v10.2c.8,1.6,2.3,2.5,4.4,2.5,3.2,0,4.8-2.6,4.8-7.8Z"/>
            <path class="cls-3" d="M238.1,58.4c-3.7,0-6.6-1.1-8.9-3.4-2.3-2.2-3.4-5.2-3.4-9v-.6c0-2.5.5-4.7,1.5-6.7,1-2,2.3-3.5,4.1-4.6,1.8-1.1,3.8-1.6,6.1-1.6,3.4,0,6.1,1.1,8.1,3.2s2.9,5.2,2.9,9.1v2.7h-15.9c.2,1.6.9,2.9,1.9,3.9s2.5,1.5,4.1,1.5c2.6,0,4.6-.9,6-2.8l3.3,3.7c-1,1.4-2.4,2.5-4.1,3.3-1.7.8-3.6,1.2-5.7,1.2ZM237.3,37.9c-1.3,0-2.4.4-3.2,1.3-.8.9-1.3,2.2-1.6,3.8h9.3v-.5c0-1.5-.4-2.6-1.2-3.4-.8-.8-1.9-1.2-3.3-1.2Z"/>
            <path class="cls-3" d="M259.1,57.9h-6.7V22.5h6.7v35.4Z"/>
            <path class="cls-3" d="M292.4,57.9h-6.9v-14.4h-13.5v14.4h-6.9V24.3h6.9v13.6h13.5v-13.6h6.9v33.6Z"/>
            <path class="cls-3" d="M312.4,57.9c-.3-.6-.5-1.3-.7-2.2-1.6,1.8-3.7,2.7-6.3,2.7s-4.5-.7-6.1-2.1c-1.6-1.4-2.4-3.2-2.4-5.3s1-4.7,2.9-6.1c2-1.4,4.8-2.1,8.5-2.1h3.1v-1.4c0-1.2-.3-2.1-.9-2.8s-1.5-1-2.8-1-2,.3-2.6.8c-.6.5-1,1.3-1,2.2h-6.7c0-1.4.4-2.8,1.3-4,.9-1.2,2.2-2.2,3.8-2.9s3.5-1,5.5-1c3.1,0,5.5.8,7.3,2.3,1.8,1.5,2.7,3.7,2.7,6.5v10.8c0,2.4.3,4.2,1,5.4v.4h-6.7ZM306.9,53.3c1,0,1.9-.2,2.7-.7.8-.4,1.4-1,1.8-1.8v-4.3h-2.5c-3.3,0-5.1,1.2-5.3,3.5v.4c0,.8.3,1.5.9,2.1.6.5,1.4.8,2.4.8Z"/>
            <path class="cls-3" d="M329.4,33l.2,2.9c1.8-2.2,4.2-3.3,7.2-3.3s4.6.8,5.9,2.3c1.3,1.6,2,3.9,2,7v16.1h-6.7v-15.9c0-1.4-.3-2.4-.9-3.1-.6-.6-1.6-1-3.1-1s-3.3.8-4.2,2.4v17.6h-6.7v-24.9h6.3Z"/>
            <path class="cls-3" d="M348.8,45.2c0-3.8.9-6.9,2.7-9.2,1.8-2.3,4.3-3.5,7.4-3.5s4.9.9,6.4,2.8l.3-2.4h6v24.1c0,2.2-.5,4.1-1.5,5.7-1,1.6-2.4,2.8-4.2,3.7-1.8.8-3.9,1.3-6.3,1.3s-3.6-.4-5.3-1.1c-1.7-.7-3-1.7-3.9-2.8l3-4.1c1.7,1.9,3.7,2.8,6,2.8s3.1-.5,4.1-1.4c1-.9,1.5-2.3,1.5-4v-1.3c-1.5,1.7-3.6,2.6-6.1,2.6s-5.4-1.2-7.3-3.5-2.8-5.5-2.8-9.3v-.3ZM355.4,45.7c0,2.3.5,4,1.4,5.3.9,1.3,2.2,1.9,3.7,1.9s3.5-.8,4.4-2.3v-10.5c-.9-1.5-2.3-2.3-4.3-2.3s-2.9.7-3.8,2c-.9,1.3-1.4,3.3-1.4,5.9Z"/>
            <path class="cls-3" d="M388.1,58.4c-3.7,0-6.6-1.1-8.9-3.4-2.3-2.2-3.4-5.2-3.4-9v-.6c0-2.5.5-4.7,1.5-6.7,1-2,2.3-3.5,4.1-4.6,1.8-1.1,3.8-1.6,6.1-1.6,3.4,0,6.1,1.1,8.1,3.2s2.9,5.2,2.9,9.1v2.7h-15.9c.2,1.6.9,2.9,1.9,3.9,1.1,1,2.5,1.5,4.1,1.5,2.6,0,4.6-.9,6-2.8l3.3,3.7c-1,1.4-2.4,2.5-4.1,3.3-1.7.8-3.6,1.2-5.7,1.2ZM387.4,37.9c-1.3,0-2.4.4-3.2,1.3-.8.9-1.3,2.2-1.6,3.8h9.3v-.5c0-1.5-.4-2.6-1.2-3.4s-1.9-1.2-3.3-1.2Z"/>
            <path class="cls-3" d="M416.2,39.2c-.9-.1-1.7-.2-2.4-.2-2.5,0-4.2.9-5,2.6v16.3h-6.7v-24.9h6.3l.2,3c1.3-2.3,3.2-3.4,5.6-3.4s1.4,0,2.1.3v6.4Z"/>
          </g>
        </g>
      </g>
    </g>
  </g>
</svg>