<?xml version="1.0" encoding="UTF-8"?><svg id="Layer_1" xmlns="http://www.w3.org/2000/svg" viewBox="0 0 587 677"><defs><style>.cls-1{fill:none;}.cls-2{fill:#dceeed;}.cls-3{fill:#b9dcd6;}.cls-4{fill:#fff;}</style></defs><g id="Group_29"><rect class="cls-1" x="127.38" width="459.62" height="595.74"/><g id="Group_28"><path class="cls-4" d="M515.57,0h71.43v49.09l-.5.43L233.13,355.32h353.87v83.85H198.38c-2.97,0-5.89-.18-8.76-.54-20.7-2.54-38.65-14.02-49.85-30.45-7.76-11.37-12.3-25.11-12.3-39.91,0-20.58,8.94-40.15,24.51-53.62L515,.5l.57-.5Z"/><path class="cls-2" d="M586.5,18.42l.5-.43v110.9l-.5.43-261.15,226-92.21,79.8h353.86v83.86H198.38c-25.02,0-47.01-12.95-59.63-32.52-7.14-11.06-11.28-24.24-11.28-38.38s4.36-28.25,12.3-39.9c3.42-5.04,7.51-9.66,12.21-13.72L586.5,18.42Z"/><path class="cls-3" d="M586.5,95.18l.5-.43v110.91l-.5.43-172.45,149.23-92.21,79.8-4.68,4.05-84.02,72.71h353.86v83.86H198.38c-39.16,0-70.91-31.74-70.92-70.9,0-13.75,3.99-27.05,11.29-38.38,3.62-5.63,8.06-10.78,13.23-15.25l37.64-32.58,96.28-83.31L586.5,95.18Z"/></g></g><g id="Rectangle_54"><rect class="cls-1" width="587" height="677"/><rect class="cls-1" x=".5" y=".5" width="586" height="676"/></g></svg>