<?xml version="1.0" encoding="UTF-8"?>
<svg xmlns="http://www.w3.org/2000/svg" xmlns:xlink="http://www.w3.org/1999/xlink" version="1.1" viewBox="0 0 1366 768">
  <defs>
    <style>
      .cls-1 {
        fill: none;
      }

      .cls-2 {
        clip-path: url(#clippath-1);
      }

      .cls-3 {
        fill: #ebf5f3;
      }

      .cls-4 {
        clip-path: url(#clippath);
      }
    </style>
    <clipPath id="clippath">
      <rect class="cls-1" width="1366" height="768"/>
    </clipPath>
    <clipPath id="clippath-1">
      <rect class="cls-1" x="-.4" y="-90.6" width="1428" height="879.7"/>
    </clipPath>
  </defs>
  <!-- Generator: Adobe Illustrator 28.7.1, SVG Export Plug-In . SVG Version: 1.2.0 Build 142)  -->
  <g>
    <g id="Layer_1">
      <g class="cls-4">
        <g class="cls-2">
          <g id="Group_3">
            <g id="Path_19">
              <path class="cls-3" d="M172.6,392.2c-1.4,0-2.9-.4-4.2-1.1l-91.8-54.9c-2-1.2-3.4-3.3-3.8-5.5-.8-4.4,2.2-8.6,6.6-9.4l90.5-16h.6c7.2-2,12.2-8.7,11.9-16.1-.4-8.7-7.7-15.4-16.4-15-8.7.4-15.4,7.7-15,16.4.1,2.6-1.9,4.9-4.6,5-2.6.1-4.9-1.9-5-4.6-.3-6.8,2.1-13.2,6.6-18.2,4.6-5,10.8-7.9,17.6-8.2,13.9-.6,25.8,10.2,26.4,24.2.5,11.9-7.5,22.7-19.1,25.7l-1.1.3h-.8c0,.1-86,15.3-86,15.3l85,50.8-14.5-43.8c-.8-2.5.5-5.2,3.1-6.1,2.5-.8,5.2.5,6.1,3.1l15.7,47.6c.7,2.2.5,4.6-.7,6.7-1.5,2.6-4.2,4-7,4ZM171.3,384.5s0,0,0,0h0Z"/>
            </g>
            <g id="Path_20">
              <path class="cls-3" d="M999.8,333.1c-1.4,0-2.9-.4-4.2-1.1l-91.8-54.9c-2-1.2-3.4-3.3-3.8-5.5-.8-4.4,2.2-8.6,6.6-9.4l90.5-16h.6c7.2-2,12.2-8.7,11.9-16.1-.2-4.2-2-8.1-5.1-10.9-3.1-2.8-7.1-4.3-11.3-4.1-4.2.2-8.1,2-10.9,5.1-2.8,3.1-4.3,7.1-4.1,11.3.1,2.6-1.9,4.9-4.6,5-2.7.1-4.9-1.9-5-4.6-.3-6.8,2.1-13.2,6.6-18.2,4.6-5,10.8-7.9,17.6-8.2,6.7-.3,13.2,2.1,18.2,6.6,5,4.6,7.9,10.8,8.2,17.6.5,11.9-7.5,22.7-19.1,25.7l-1.1.3h-.8c0,.1-86,15.3-86,15.3l85,50.8-14.5-43.8c-.8-2.5.5-5.2,3.1-6.1,2.5-.8,5.2.5,6.1,3.1l15.7,47.6c.7,2.2.5,4.6-.7,6.7-1.5,2.6-4.2,4-7,4ZM998.5,325.5s0,0,0,0h0Z"/>
            </g>
            <g id="Path_21">
              <path class="cls-3" d="M494.9,37c-1.5,0-2.9-.4-4.2-1.2l-91.8-54.9c-2-1.2-3.4-3.3-3.8-5.5-.8-4.4,2.2-8.6,6.6-9.4l90.5-16h.6c7.2-2,12.2-8.7,11.9-16.1-.2-4.2-2-8.1-5.1-10.9-3.1-2.8-7.1-4.3-11.3-4.1-8.7.4-15.4,7.7-15,16.4.1,2.6-1.9,4.9-4.6,5-2.7.1-4.9-1.9-5-4.6-.6-13.9,10.2-25.8,24.2-26.4,6.8-.3,13.2,2.1,18.2,6.6,5,4.6,7.9,10.8,8.2,17.6.5,11.9-7.5,22.7-19.1,25.7l-1.1.3h-.8c0,.1-86,15.3-86,15.3l85,50.8-14.5-43.8c-.8-2.5.5-5.2,3.1-6.1,2.5-.8,5.2.5,6.1,3.1l15.7,47.6c.7,2.2.5,4.6-.7,6.7-1.1,1.9-2.9,3.2-5,3.7-.7.2-1.3.2-2,.2ZM493.5,29.4s0,0,0,0h0Z"/>
            </g>
            <g id="Path_22">
              <path class="cls-3" d="M626,713.3c-1.5,0-2.9-.4-4.2-1.2l-91.8-54.9c-2-1.2-3.4-3.3-3.8-5.5-.8-4.4,2.2-8.6,6.6-9.4l90.5-16h.6c7.2-2,12.2-8.7,11.9-16.1-.2-4.2-2-8.1-5.1-10.9-3.1-2.8-7.1-4.3-11.3-4.1-4.2.2-8.1,2-10.9,5.1-2.8,3.1-4.3,7.1-4.1,11.3.1,2.6-1.9,4.9-4.6,5-2.7.1-4.9-1.9-5-4.6-.3-6.8,2.1-13.2,6.6-18.2,4.6-5,10.8-7.9,17.6-8.2,6.7-.3,13.2,2.1,18.2,6.6,5,4.6,7.9,10.8,8.2,17.6.5,11.9-7.5,22.7-19.1,25.7l-1.1.3h-.8c0,.1-86,15.3-86,15.3l85,50.8-14.5-43.8c-.8-2.5.5-5.2,3.1-6.1,2.5-.8,5.2.5,6.1,3.1l15.7,47.6c.7,2.2.5,4.6-.7,6.7-1.1,1.9-2.9,3.2-5,3.7-.7.2-1.3.2-2,.2ZM624.6,705.6s0,0,0,0h0Z"/>
            </g>
            <g id="Path_23">
              <path class="cls-3" d="M1094.2,789.1c-1.5,0-2.9-.4-4.2-1.2l-91.8-54.9c-2-1.2-3.4-3.2-3.8-5.5-.8-4.4,2.2-8.6,6.6-9.4l90.5-16h.6c7.2-2,12.2-8.7,11.9-16.1-.4-8.7-7.7-15.4-16.4-15-8.7.4-15.4,7.7-15,16.4.1,2.6-1.9,4.9-4.6,5-2.6.1-4.9-1.9-5-4.6-.6-14,10.2-25.8,24.2-26.4,14-.6,25.8,10.2,26.4,24.2.5,11.9-7.5,22.7-19.1,25.7l-1.1.3h-.8c0,.1-86,15.3-86,15.3l85,50.8-14.5-43.8c-.8-2.5.5-5.2,3.1-6.1,2.5-.8,5.2.5,6.1,3.1l15.7,47.6c.7,2.2.5,4.6-.7,6.7-1.1,1.9-2.9,3.2-5,3.7-.7.2-1.3.2-2,.2ZM1092.8,781.5s0,0,0,0h0ZM1095,779.7h0s0,0,0,0Z"/>
            </g>
            <g id="Path_24">
              <path class="cls-3" d="M327.6,225.6c-1.2,0-2.4-.3-3.5-.8-1.9-.9-3.4-2.6-4.1-4.6-.7-2-.6-4.2.3-6.2l39.7-82.8.2-.6c2.7-6.9.2-14.9-6-18.9-7.3-4.7-17-2.7-21.7,4.6-2.3,3.5-3.1,7.7-2.2,11.8.9,4.1,3.3,7.6,6.8,9.9,2.2,1.4,2.8,4.4,1.4,6.6-1.4,2.2-4.4,2.8-6.6,1.4-11.7-7.6-15-23.3-7.4-35,7.6-11.7,23.3-15,35-7.4,10,6.5,14.1,19.4,9.7,30.5l-.4,1-.3.7-37.8,78.7,90.8-39.5-44-13.8c-2.5-.8-3.9-3.5-3.1-6,.8-2.5,3.5-3.9,6-3.1l47.9,15c2.2.7,4.1,2.3,5,4.5.9,2,.9,4.2.1,6.2-.8,2-2.3,3.6-4.3,4.5l-98.1,42.7c-1,.5-2.1.7-3.2.7ZM327,216.2s0,0,0,0h0ZM425.3,176.3s0,0,0,0h0Z"/>
            </g>
            <g id="Path_25">
              <path class="cls-3" d="M7.8,648.7c-1.2,0-2.4-.3-3.5-.8-4-1.9-5.7-6.8-3.8-10.8l39.7-82.8.2-.6c2.7-6.9.2-14.9-6-18.9-3.5-2.3-7.7-3.1-11.8-2.2s-7.6,3.3-9.9,6.8c-2.3,3.5-3.1,7.7-2.2,11.8.9,4.1,3.3,7.6,6.8,9.9,2.2,1.4,2.8,4.4,1.4,6.6s-4.4,2.8-6.6,1.4c-5.7-3.7-9.5-9.4-10.9-16-1.4-6.6-.1-13.4,3.6-19,3.7-5.7,9.4-9.5,16-10.9,6.6-1.4,13.4-.1,19,3.6,10,6.5,14.1,19.4,9.7,30.5l-.4,1-.3.7-37.8,78.8,90.8-39.5-44-13.8c-2.5-.8-3.9-3.5-3.1-6,.8-2.5,3.5-3.9,6-3.1l47.8,15c2.3.7,4.1,2.4,5,4.5.9,2,.9,4.2.1,6.2-.8,2-2.3,3.6-4.3,4.5l-98.1,42.7c-1,.5-2.1.7-3.2.7ZM7.1,639.2s0,0,0,0h0Z"/>
            </g>
            <g id="Path_26">
              <path class="cls-3" d="M634,415.7c-1.2,0-2.4-.3-3.5-.8-4-1.9-5.7-6.8-3.8-10.8l39.7-82.8.2-.6c2.7-6.9.2-14.9-6-18.9-7.3-4.7-17-2.7-21.7,4.6-4.7,7.3-2.7,17,4.6,21.7,2.2,1.4,2.8,4.4,1.4,6.6-1.4,2.2-4.4,2.8-6.6,1.4-11.7-7.6-15-23.3-7.4-35,7.6-11.7,23.3-15,35-7.4,10,6.5,14.1,19.4,9.7,30.5l-.4,1-.3.7-37.8,78.8,90.8-39.5-44-13.8c-2.5-.8-3.9-3.5-3.1-6,.8-2.5,3.5-3.9,6-3.1l47.8,15c2.2.7,4.1,2.3,5,4.5.9,2,.9,4.2.1,6.2-.8,2-2.3,3.6-4.3,4.5l-98.1,42.7c-1,.5-2.1.7-3.2.7ZM633.4,406.2s0,0,0,0h0ZM731.6,366.3s0,0,0,0h0Z"/>
            </g>
            <g id="Path_27">
              <path class="cls-3" d="M1317,40.3c-1.2,0-2.4-.3-3.5-.8-1.9-.9-3.4-2.6-4.1-4.6-.7-2-.6-4.2.3-6.2l39.7-82.8.2-.6c2.7-6.9.2-14.9-6-18.9-3.5-2.3-7.7-3.1-11.8-2.2-4.1.9-7.6,3.3-9.9,6.8-2.3,3.5-3.1,7.7-2.2,11.8.9,4.1,3.3,7.6,6.8,9.9,2.2,1.4,2.8,4.4,1.4,6.6-1.4,2.2-4.4,2.8-6.6,1.4-5.7-3.7-9.5-9.4-10.9-16-1.4-6.6-.1-13.4,3.6-19s9.4-9.5,16-10.9c6.6-1.4,13.4-.1,19,3.6,10,6.5,14.1,19.4,9.7,30.5l-.4,1-.3.7-37.7,78.7,90.8-39.5-44-13.8c-2.5-.8-3.9-3.5-3.1-6s3.5-3.9,6-3.1l47.9,15c2.2.7,4.1,2.3,5,4.5.9,2,.9,4.2.1,6.2-.8,2-2.3,3.6-4.3,4.5l-98.1,42.7c-1,.5-2.1.7-3.2.7ZM1316.4,30.8s0,0,0,0h0ZM1414.6-9.1s0,0,0,0h0Z"/>
            </g>
            <g id="Path_28">
              <path class="cls-3" d="M1165.5,542.6c-1.2,0-2.4-.3-3.5-.8-1.9-.9-3.4-2.6-4.1-4.6-.7-2-.6-4.2.3-6.2l39.7-82.8.2-.6c2.7-6.9.2-14.9-6-18.9-3.5-2.3-7.7-3.1-11.8-2.2-4.1.9-7.6,3.3-9.9,6.8-2.3,3.5-3.1,7.7-2.2,11.8.9,4.1,3.3,7.6,6.8,9.9,2.2,1.4,2.8,4.4,1.4,6.6s-4.4,2.8-6.6,1.4c-5.7-3.7-9.5-9.4-10.9-16-1.4-6.6-.1-13.4,3.6-19,3.7-5.7,9.4-9.5,16-10.9,6.6-1.4,13.4-.1,19,3.6,10,6.5,14.1,19.4,9.7,30.5l-.4,1-.3.7-37.8,78.7,90.8-39.5-44-13.8c-2.5-.8-3.9-3.5-3.1-6,.8-2.5,3.5-3.9,6-3.1l47.8,15c2.3.7,4.1,2.4,5,4.5.9,2,.9,4.2.1,6.2-.8,2-2.3,3.6-4.3,4.5l-98.1,42.7c-1,.5-2.1.7-3.2.7ZM1164.9,533.1s0,0,0,0h0Z"/>
            </g>
            <g id="Path_29">
              <path class="cls-3" d="M58.2,120.1c-2.4,0-4.6-1-6.1-2.8-2.9-3.4-2.6-8.5.8-11.4l69.4-60.2.4-.4c5.2-5.2,6.1-13.6,2-19.8-2.3-3.5-5.8-5.9-10-6.7-4.1-.8-8.3,0-11.8,2.3-7.2,4.8-9.2,14.5-4.5,21.8,1.5,2.2.8,5.2-1.4,6.6-2.2,1.5-5.2.8-6.6-1.4-7.7-11.7-4.5-27.4,7.2-35.1,11.7-7.7,27.4-4.5,35.1,7.2,6.6,10,5.2,23.4-3.2,31.8l-1.4,1.3-66,57.2h99c0,0-34.9-30.2-34.9-30.2-2-1.7-2.2-4.8-.5-6.8,1.7-2,4.8-2.2,6.8-.5l37.9,32.8c1.8,1.5,2.8,3.8,2.8,6.1,0,4.5-3.6,8.1-8.1,8.1H58.2ZM164.2,113.1s0,0,0,0h0Z"/>
            </g>
            <g id="Path_30">
              <path class="cls-3" d="M908.1,69.3c-2.4,0-4.6-1-6.1-2.8-2.9-3.4-2.6-8.5.8-11.4l69.5-60.2.4-.4c5.2-5.2,6.1-13.6,2-19.8-4.8-7.2-14.5-9.2-21.8-4.5-7.2,4.8-9.2,14.5-4.5,21.8,1.5,2.2.8,5.2-1.4,6.6-2.2,1.5-5.2.8-6.7-1.4-7.7-11.7-4.5-27.4,7.2-35.1s27.4-4.5,35.1,7.2c6.6,10,5.2,23.4-3.2,31.8l-.8.8-.6.5-66,57.2h99c0,0-34.9-30.2-34.9-30.2-2-1.7-2.2-4.8-.5-6.8s4.8-2.2,6.8-.5l37.9,32.8c1.8,1.5,2.8,3.8,2.8,6.1,0,4.5-3.6,8.1-8.1,8.1h-107ZM1014.1,62.3s0,0,0,0h0Z"/>
            </g>
            <g id="Path_31">
              <path class="cls-3" d="M190.5,746.6c-2.4,0-4.6-1-6.1-2.8-2.9-3.4-2.6-8.5.8-11.4l69.5-60.2.4-.4c5.2-5.3,6.1-13.6,2-19.8-2.3-3.5-5.8-5.9-10-6.7-4.1-.8-8.3,0-11.8,2.3-3.5,2.3-5.9,5.8-6.7,10-.8,4.1,0,8.3,2.3,11.8,1.5,2.2.8,5.2-1.4,6.6-2.2,1.5-5.2.8-6.6-1.4-3.7-5.6-5-12.4-3.7-19,1.4-6.6,5.2-12.3,10.9-16,5.6-3.7,12.4-5,19-3.7,6.6,1.4,12.3,5.2,16,10.9,6.6,10,5.2,23.4-3.2,31.8l-.8.8-.6.5-66,57.2h99c0,0-34.9-30.2-34.9-30.2-2-1.7-2.2-4.8-.5-6.8,1.7-2,4.8-2.2,6.8-.5l37.9,32.8c1.8,1.5,2.8,3.8,2.8,6.1,0,4.5-3.6,8.1-8.1,8.1h-107ZM296.5,739.5s0,0,0,0h0Z"/>
            </g>
            <g id="Path_32">
              <path class="cls-3" d="M344.3,490.5c-2.4,0-4.6-1-6.1-2.8-2.9-3.4-2.6-8.5.8-11.4l69.4-60.2.4-.4c5.2-5.2,6.1-13.6,2-19.8-4.8-7.2-14.5-9.2-21.8-4.5-7.2,4.8-9.2,14.5-4.5,21.8,1.5,2.2.8,5.2-1.4,6.6-2.2,1.5-5.2.8-6.6-1.4-7.7-11.7-4.5-27.4,7.2-35.1,11.7-7.7,27.4-4.5,35.1,7.2,6.6,10,5.2,23.4-3.2,31.8l-1.4,1.3-66,57.2h99c0,0-34.9-30.2-34.9-30.2-2-1.7-2.2-4.8-.5-6.8,1.7-2,4.8-2.2,6.8-.5l37.9,32.8c1.8,1.5,2.8,3.8,2.8,6.1,0,4.5-3.6,8.1-8.1,8.1h-107ZM450.3,483.4s0,0,0,0h0Z"/>
            </g>
            <g id="Path_33">
              <path class="cls-3" d="M1312.5,699.5c-2.4,0-4.6-1-6.1-2.8-2.9-3.4-2.6-8.5.8-11.4l69.5-60.2.4-.4c5.2-5.3,6.1-13.6,2-19.8-4.8-7.2-14.5-9.2-21.8-4.5-3.5,2.3-5.9,5.8-6.7,10s0,8.3,2.3,11.8c1.5,2.2.8,5.2-1.4,6.6-2.2,1.5-5.2.8-6.7-1.4-3.7-5.6-5-12.4-3.7-19,1.4-6.6,5.2-12.3,10.9-16,11.6-7.7,27.4-4.5,35.1,7.2,6.6,10,5.2,23.4-3.2,31.8l-.8.8-.6.5-66,57.2h99c0,0-34.9-30.2-34.9-30.2-2-1.7-2.2-4.8-.5-6.8,1.7-2,4.8-2.2,6.8-.5l37.9,32.8c1.8,1.5,2.8,3.8,2.8,6.1,0,4.5-3.6,8.1-8.1,8.1h-107ZM1418.5,692.5h0s0,0,0,0Z"/>
            </g>
            <g id="Path_34">
              <path class="cls-3" d="M1181.8,211.4c-2.4,0-4.6-1-6.1-2.8-2.9-3.4-2.6-8.5.8-11.4l69.5-60.2.4-.4c5.2-5.2,6.1-13.6,2-19.8-4.8-7.2-14.5-9.2-21.8-4.5-7.2,4.8-9.2,14.5-4.5,21.8,1.5,2.2.8,5.2-1.4,6.6-2.2,1.5-5.2.8-6.7-1.4-7.7-11.7-4.5-27.4,7.2-35.1,11.7-7.7,27.4-4.5,35.1,7.2,6.6,10,5.2,23.4-3.2,31.8l-1.4,1.3-66,57.2h99c0,0-34.9-30.2-34.9-30.2-2-1.7-2.2-4.8-.5-6.8s4.8-2.2,6.8-.5l37.9,32.8c1.8,1.5,2.8,3.8,2.8,6.1,0,4.5-3.6,8.1-8.1,8.1h-107ZM1287.8,204.4s0,0,0,0h0Z"/>
            </g>
            <g id="Path_35">
              <path class="cls-3" d="M837.2,592.1c-2.4,0-4.6-1-6.1-2.8-2.9-3.4-2.6-8.5.8-11.4l69.5-60.2.4-.4c5.2-5.2,6.1-13.6,2-19.8-4.8-7.2-14.5-9.2-21.8-4.5-7.2,4.8-9.2,14.5-4.5,21.8,1.5,2.2.8,5.2-1.4,6.6-2.2,1.5-5.2.8-6.6-1.4-7.7-11.7-4.5-27.4,7.2-35.1,11.7-7.7,27.4-4.5,35.1,7.2,6.6,10,5.2,23.4-3.2,31.8l-1.4,1.3-66,57.2h99c0,0-34.9-30.2-34.9-30.2-2-1.7-2.2-4.8-.5-6.8,1.7-2,4.8-2.2,6.8-.5l37.9,32.8c1.8,1.5,2.8,3.8,2.8,6.1,0,4.5-3.6,8.1-8.1,8.1h-107ZM943.2,585.1s0,0,0,0h0Z"/>
            </g>
            <g id="Path_36">
              <path class="cls-3" d="M628.6,160.6c-2.4,0-4.6-1-6.1-2.8-2.9-3.4-2.6-8.5.8-11.4l69.4-60.2.4-.4c5.2-5.3,6.1-13.6,2-19.8-4.8-7.2-14.5-9.2-21.8-4.5-3.5,2.3-5.9,5.8-6.7,10-.8,4.1,0,8.3,2.3,11.8,1.5,2.2.8,5.2-1.4,6.6-2.2,1.5-5.2.8-6.6-1.4-7.7-11.7-4.5-27.4,7.2-35.1,11.7-7.7,27.4-4.5,35.1,7.2,6.6,10,5.2,23.4-3.2,31.8l-.8.8-.6.5-66,57.2h99c0,0-34.9-30.2-34.9-30.2-2-1.7-2.2-4.8-.5-6.8,1.7-2,4.8-2.2,6.8-.5l37.9,32.8c1.8,1.5,2.8,3.8,2.8,6.1,0,4.5-3.6,8.1-8.1,8.1h-107ZM734.6,153.6h0s0,0,0,0Z"/>
            </g>
          </g>
        </g>
      </g>
    </g>
  </g>
</svg>