<?xml version="1.0" encoding="UTF-8"?>
<svg xmlns="http://www.w3.org/2000/svg" xmlns:xlink="http://www.w3.org/1999/xlink" version="1.1" viewBox="0 0 1366 768">
  <defs>
    <style>
      .cls-1 {
        fill: none;
      }

      .cls-2 {
        fill: #65b99c;
      }

      .cls-3 {
        clip-path: url(#clippath-1);
      }

      .cls-4 {
        fill: #80c3ac;
      }

      .cls-5 {
        clip-path: url(#clippath);
      }
    </style>
    <clipPath id="clippath">
      <rect class="cls-1" width="1366" height="768"/>
    </clipPath>
    <clipPath id="clippath-1">
      <rect class="cls-1" y="-40.9" width="1428" height="879.7"/>
    </clipPath>
  </defs>
  <!-- Generator: Adobe Illustrator 28.7.1, SVG Export Plug-In . SVG Version: 1.2.0 Build 142)  -->
  <g>
    <g id="Layer_1">
      <g class="cls-5">
        <g>
          <rect class="cls-2" width="1366" height="768"/>
          <g class="cls-3">
            <g id="Group_1">
              <g id="Path_1">
                <path class="cls-4" d="M173,441.9c-1.4,0-2.9-.4-4.2-1.1l-91.8-54.9c-2-1.2-3.4-3.3-3.8-5.5-.4-2.1,0-4.3,1.3-6.1,1.2-1.8,3.1-3,5.2-3.3l90.5-16h.6c7.2-2,12.2-8.7,11.9-16.1-.2-4.2-2-8.1-5.1-10.9-3.1-2.8-7.1-4.3-11.3-4.1-4.2.2-8.1,2-10.9,5.1-2.8,3.1-4.3,7.1-4.1,11.3.1,2.6-1.9,4.9-4.6,5-2.6.1-4.9-1.9-5-4.6-.3-6.8,2.1-13.2,6.6-18.2,4.6-5,10.8-7.9,17.6-8.2,6.7-.3,13.2,2.1,18.2,6.6,5,4.6,7.9,10.8,8.2,17.6.5,11.9-7.5,22.7-19.1,25.7l-1.1.3h-.8c0,.1-86,15.3-86,15.3l85,50.8-14.5-43.8c-.8-2.5.5-5.2,3.1-6.1,2.5-.8,5.2.5,6.1,3.1l15.7,47.6c.7,2.2.5,4.6-.7,6.7-1.5,2.6-4.2,4-7,4ZM171.6,434.3s0,0,0,0h0Z"/>
              </g>
              <g id="Path_2">
                <path class="cls-4" d="M1000.2,382.9c-1.5,0-2.9-.4-4.2-1.2l-91.8-54.9c-2-1.2-3.4-3.3-3.8-5.5-.4-2.1,0-4.3,1.3-6.1,1.2-1.8,3.1-3,5.2-3.3l90.5-16h.6c7.2-2,12.2-8.7,11.9-16.1-.4-8.7-7.7-15.4-16.4-15-4.2.2-8.1,2-10.9,5.1-2.8,3.1-4.3,7.1-4.1,11.3.1,2.6-1.9,4.9-4.6,5-2.7.1-4.9-1.9-5-4.6-.3-6.8,2.1-13.2,6.6-18.2,4.6-5,10.8-7.9,17.6-8.2,14-.6,25.8,10.2,26.4,24.2.5,11.9-7.5,22.7-19.1,25.7l-1.1.3h-.8c0,.1-86,15.3-86,15.3l85,50.8-14.5-43.8c-.8-2.5.5-5.2,3.1-6.1,2.5-.8,5.2.5,6.1,3.1l15.7,47.6c.7,2.2.5,4.6-.7,6.7-1.1,1.9-2.9,3.2-5,3.7-.7.2-1.3.2-2,.2ZM998.8,375.3s0,0,0,0h0Z"/>
              </g>
              <g id="Path_3">
                <path class="cls-4" d="M495.3,86.8c-1.5,0-2.9-.4-4.2-1.2l-91.8-54.9c-2-1.2-3.4-3.3-3.8-5.5-.4-2.1,0-4.3,1.3-6.1,1.2-1.8,3.1-3,5.2-3.3L492.5-.2h.6c7.2-2,12.2-8.7,11.9-16.1-.4-8.7-7.7-15.4-16.4-15-8.7.4-15.4,7.7-15,16.4.1,2.6-1.9,4.9-4.6,5-2.6.1-4.9-1.9-5-4.6-.6-13.9,10.2-25.8,24.2-26.4,13.9-.6,25.8,10.2,26.4,24.2.5,11.9-7.5,22.7-19.1,25.7l-1.1.3h-.8c0,.1-86,15.3-86,15.3l85,50.8-14.5-43.8c-.8-2.5.5-5.2,3.1-6.1,2.5-.8,5.2.5,6.1,3.1l15.7,47.6c.7,2.2.5,4.6-.7,6.7-1.1,1.9-2.9,3.2-5,3.7-.7.2-1.3.2-2,.2ZM493.9,79.1s0,0,0,0h0Z"/>
              </g>
              <g id="Path_4">
                <path class="cls-4" d="M686.4,763c-1.5,0-2.9-.4-4.2-1.2l-91.8-54.9c-2-1.2-3.4-3.3-3.8-5.5-.8-4.4,2.2-8.6,6.6-9.4l90.5-16h.6c7.2-2,12.2-8.7,11.9-16.1-.4-8.4-7.3-15-15.7-15s-.5,0-.7,0c-8.7.4-15.4,7.7-15,16.4.1,2.6-1.9,4.9-4.6,5-2.6.1-4.9-1.9-5-4.6-.6-14,10.2-25.8,24.2-26.4,13.9-.6,25.8,10.2,26.4,24.2.5,11.9-7.5,22.7-19.1,25.7l-1.1.3h-.8c0,.1-86,15.3-86,15.3l85,50.8-14.5-43.8c-.8-2.5.5-5.2,3.1-6.1,2.5-.8,5.2.5,6.1,3.1l15.7,47.6c.7,2.2.5,4.6-.7,6.7-1.1,1.9-2.9,3.2-5,3.7-.7.2-1.3.2-2,.2ZM685,755.4s0,0,0,0h0Z"/>
              </g>
              <g id="Path_5">
                <path class="cls-4" d="M1094.5,838.8c-1.4,0-2.8-.4-4.2-1.1l-91.8-54.9c-2-1.2-3.4-3.2-3.8-5.5-.8-4.4,2.2-8.6,6.6-9.4l90.5-16h.6c7.2-2,12.2-8.7,11.9-16.1-.4-8.7-7.8-15.4-16.4-15-8.7.4-15.4,7.7-15,16.4.1,2.6-1.9,4.9-4.6,5-2.7.1-4.9-1.9-5-4.6-.6-14,10.2-25.8,24.2-26.4,6.8-.3,13.2,2.1,18.2,6.6,5,4.6,7.9,10.8,8.2,17.6.5,11.9-7.5,22.7-19.1,25.7l-1.1.3h-.8c0,.1-86,15.3-86,15.3l85,50.8-14.5-43.8c-.8-2.5.5-5.2,3.1-6.1,2.5-.8,5.2.5,6.1,3.1l15.7,47.6c.7,2.2.5,4.6-.7,6.7-1.5,2.6-4.2,4-7,4ZM1093.2,831.2s0,0,0,0h0Z"/>
              </g>
              <g id="Path_6">
                <path class="cls-4" d="M328,275.4c-1.2,0-2.4-.3-3.5-.8-4-1.9-5.7-6.8-3.8-10.8l39.7-82.8.2-.6c2.7-6.9.2-14.9-6-18.9-3.5-2.3-7.7-3.1-11.8-2.2-4.1.9-7.6,3.3-9.9,6.8-4.7,7.3-2.7,17,4.6,21.7,2.2,1.4,2.8,4.4,1.4,6.6-1.4,2.2-4.4,2.8-6.6,1.4-11.7-7.6-15-23.3-7.4-35,3.7-5.7,9.4-9.5,16-10.9,6.6-1.4,13.4-.1,19,3.6,10,6.5,14.1,19.4,9.7,30.5l-.4,1-.3.7-37.8,78.8,90.8-39.5-44-13.8c-2.5-.8-3.9-3.5-3.1-6,.8-2.5,3.5-3.9,6-3.1l47.9,15c2.2.7,4.1,2.3,5,4.5.9,2,.9,4.2.1,6.2-.8,2-2.3,3.6-4.3,4.5l-98.1,42.7c-1,.5-2.1.7-3.2.7ZM327.4,265.9s0,0,0,0h0ZM425.7,226s0,0,0,0h0Z"/>
              </g>
              <g id="Path_7">
                <path class="cls-4" d="M8.1,698.4c-1.2,0-2.4-.3-3.5-.8-1.9-.9-3.4-2.6-4.1-4.6-.7-2-.6-4.2.3-6.2l39.7-82.8.2-.6c2.7-6.9.2-14.9-6-18.9-7.3-4.7-17-2.7-21.7,4.6-2.3,3.5-3.1,7.7-2.2,11.8.9,4.1,3.3,7.6,6.8,9.9,2.2,1.4,2.8,4.4,1.4,6.6-1.4,2.2-4.4,2.8-6.6,1.4-5.7-3.7-9.5-9.4-10.9-16-1.4-6.6-.1-13.4,3.6-19,7.6-11.7,23.3-15,35-7.4,10,6.5,14.1,19.4,9.7,30.5l-.4,1-.3.7-37.8,78.8,90.8-39.5-44-13.8c-2.5-.8-3.9-3.5-3.1-6s3.5-3.9,6-3.1l47.9,15c2.3.7,4.1,2.4,5,4.5.9,2,.9,4.2.1,6.2-.8,2-2.3,3.6-4.3,4.5l-98.1,42.7c-1,.5-2.1.7-3.2.7ZM7.5,688.9s0,0,0,0h0Z"/>
              </g>
              <g id="Path_8">
                <path class="cls-4" d="M634.4,465.4c-1.2,0-2.4-.3-3.5-.8-1.9-.9-3.4-2.6-4.1-4.6-.7-2-.6-4.2.3-6.2l39.7-82.8.2-.6c2.7-6.9.2-14.9-6-18.9-7.3-4.7-17-2.7-21.7,4.6-2.3,3.5-3.1,7.7-2.2,11.8.9,4.1,3.3,7.6,6.8,9.9,2.2,1.4,2.8,4.4,1.4,6.6-1.4,2.2-4.4,2.8-6.6,1.4-11.7-7.6-15-23.3-7.4-35,7.6-11.7,23.3-15,35-7.4,10,6.5,14.1,19.4,9.7,30.5l-.4,1-.3.7-37.8,78.8,90.8-39.5-44-13.8c-2.5-.8-3.9-3.5-3.1-6,.8-2.5,3.5-3.9,6-3.1l47.9,15c2.2.7,4.1,2.3,5,4.5.9,2,.9,4.2.1,6.2-.8,2-2.3,3.6-4.3,4.5l-98.1,42.7c-1,.5-2.1.7-3.2.7ZM633.7,455.9s0,0,0,0h0ZM732,416s0,0,0,0h0Z"/>
              </g>
              <g id="Path_9">
                <path class="cls-4" d="M1317.4,90c-1.2,0-2.4-.3-3.5-.8-1.9-.9-3.4-2.6-4.1-4.6-.7-2-.6-4.2.3-6.2l39.7-82.8.2-.6c2.7-6.9.2-14.9-6-18.9-7.3-4.7-17-2.7-21.7,4.6-4.7,7.3-2.7,17,4.6,21.7,2.2,1.4,2.8,4.4,1.4,6.6-1.4,2.2-4.4,2.8-6.6,1.4-11.7-7.6-15-23.3-7.4-35,7.6-11.7,23.3-15,35-7.4,10,6.5,14.1,19.4,9.7,30.5l-.4,1-.3.7-37.7,78.7,90.8-39.5-44-13.8c-2.5-.8-3.9-3.5-3.1-6s3.5-3.9,6-3.1l47.9,15c2.2.7,4.1,2.3,5,4.5,1.8,4.1-.1,8.9-4.2,10.7l-98.1,42.7c-1,.5-2.1.7-3.2.7ZM1316.7,80.5s0,0,0,0h0ZM1415,40.6s0,0,0,0h0Z"/>
              </g>
              <g id="Path_10">
                <path class="cls-4" d="M1165.9,592.3c-1.2,0-2.4-.3-3.5-.8-1.9-.9-3.4-2.6-4.1-4.6-.7-2-.6-4.2.3-6.2l39.7-82.8.2-.6c2.7-6.9.2-14.9-6-18.9-7.3-4.7-17-2.7-21.7,4.6-2.3,3.5-3.1,7.7-2.2,11.8.9,4.1,3.3,7.6,6.8,9.9,2.2,1.4,2.8,4.4,1.4,6.6s-4.4,2.8-6.6,1.4c-5.7-3.7-9.5-9.4-10.9-16-1.4-6.6-.1-13.4,3.6-19,7.6-11.7,23.3-15,35-7.4,10,6.5,14.1,19.4,9.7,30.5l-.4,1-.3.7-37.8,78.7,90.8-39.5-44-13.8c-2.5-.8-3.9-3.5-3.1-6,.8-2.5,3.5-3.9,6-3.1l47.9,15c2.3.7,4.1,2.4,5,4.5.9,2,.9,4.2.1,6.2-.8,2-2.3,3.6-4.3,4.5l-98.1,42.7c-1,.5-2.1.7-3.2.7ZM1165.3,582.8s0,0,0,0h0Z"/>
              </g>
              <g id="Path_11">
                <path class="cls-4" d="M58.5,169.9c-2.4,0-4.6-1-6.1-2.8-2.9-3.4-2.6-8.5.8-11.4l69.4-60.2.4-.4c5.2-5.2,6.1-13.6,2-19.8-2.3-3.5-5.8-5.9-10-6.7-4.1-.8-8.3,0-11.8,2.3-3.5,2.3-5.9,5.8-6.7,10-.8,4.1,0,8.3,2.3,11.8,1.5,2.2.8,5.2-1.4,6.6-2.2,1.5-5.2.8-6.6-1.4-3.7-5.6-5-12.4-3.7-19,1.4-6.6,5.2-12.3,10.9-16,5.6-3.7,12.4-5,19-3.7,6.6,1.4,12.3,5.2,16,10.9,6.6,10,5.2,23.4-3.2,31.8l-1.4,1.3-66,57.2h99c0,0-34.9-30.2-34.9-30.2-2-1.7-2.2-4.8-.5-6.8,1.7-2,4.8-2.2,6.8-.5l37.9,32.8c1.8,1.5,2.8,3.8,2.8,6.1,0,4.5-3.6,8.1-8.1,8.1H58.5ZM164.5,162.9h0s0,0,0,0Z"/>
              </g>
              <g id="Path_12">
                <path class="cls-4" d="M908.4,119c-2.4,0-4.6-1-6.1-2.8-2.9-3.4-2.6-8.5.8-11.4l69.5-60.2.4-.4c5.2-5.2,6.1-13.6,2-19.8-4.8-7.2-14.5-9.2-21.8-4.5-7.2,4.8-9.2,14.5-4.5,21.8,1.5,2.2.8,5.2-1.4,6.6-2.2,1.5-5.2.8-6.7-1.4-7.7-11.7-4.5-27.4,7.2-35.1,11.7-7.7,27.4-4.5,35.1,7.2,6.6,10,5.2,23.4-3.2,31.8l-.8.8-.6.5-66,57.2h99c0,0-34.9-30.2-34.9-30.2-2-1.7-2.2-4.8-.5-6.8s4.8-2.2,6.8-.5l37.9,32.8c1.8,1.5,2.8,3.8,2.8,6.1,0,4.5-3.6,8.1-8.1,8.1h-107ZM1014.4,112s0,0,0,0h0Z"/>
              </g>
              <g id="Path_13">
                <path class="cls-4" d="M190.9,796.3c-2.4,0-4.6-1-6.1-2.8-2.9-3.4-2.6-8.5.8-11.4l69.5-60.2.4-.4c5.2-5.2,6.1-13.6,2-19.8-4.8-7.2-14.5-9.2-21.8-4.5-3.5,2.3-5.9,5.8-6.7,10-.8,4.1,0,8.3,2.3,11.8,1.5,2.2.8,5.2-1.4,6.6s-5.2.8-6.6-1.4c-7.7-11.7-4.5-27.4,7.2-35.1,11.7-7.7,27.4-4.5,35.1,7.2,6.6,10,5.2,23.4-3.2,31.8l-1.4,1.3-66,57.2h99c0,0-34.9-30.2-34.9-30.2-2-1.7-2.2-4.8-.5-6.8,1.7-2,4.8-2.2,6.8-.5l37.9,32.8c1.8,1.5,2.8,3.8,2.8,6.1,0,4.5-3.6,8.1-8.1,8.1h-107ZM296.9,789.3s0,0,0,0h0Z"/>
              </g>
              <g id="Path_14">
                <path class="cls-4" d="M344.7,540.2c-2.4,0-4.6-1-6.1-2.8-2.9-3.4-2.6-8.5.8-11.4l69.4-60.2.4-.4c5.2-5.2,6.1-13.6,2-19.8-4.8-7.2-14.5-9.2-21.8-4.5-7.2,4.8-9.2,14.5-4.5,21.8,1.5,2.2.8,5.2-1.4,6.6-2.2,1.5-5.2.8-6.6-1.4-7.7-11.7-4.5-27.4,7.2-35.1,11.7-7.7,27.4-4.5,35.1,7.2,6.6,10,5.2,23.4-3.2,31.8l-.8.8-.6.5-66,57.2h99c0,0-34.9-30.2-34.9-30.2-2-1.7-2.2-4.8-.5-6.8,1.7-2,4.8-2.2,6.8-.5l37.9,32.8c1.8,1.5,2.8,3.8,2.8,6.1,0,4.5-3.6,8.1-8.1,8.1h-107ZM450.7,533.2s0,0,0,0h0Z"/>
              </g>
              <g id="Path_15">
                <path class="cls-4" d="M1312.9,749.3c-2.4,0-4.6-1-6.1-2.8-2.9-3.4-2.6-8.5.8-11.4l69.5-60.2.4-.4c5.2-5.2,6.1-13.6,2-19.8-4.8-7.2-14.5-9.2-21.8-4.5-7.2,4.8-9.2,14.5-4.5,21.8,1.5,2.2.8,5.2-1.4,6.6-2.2,1.5-5.2.8-6.7-1.4-7.7-11.7-4.5-27.4,7.2-35.1,11.7-7.7,27.4-4.5,35.1,7.2,6.6,10,5.2,23.4-3.2,31.8l-1.4,1.3-66,57.2h99c0,0-34.9-30.2-34.9-30.2-2-1.7-2.2-4.8-.5-6.8,1.7-2,4.8-2.2,6.8-.5l37.9,32.8c1.8,1.5,2.8,3.8,2.8,6.1,0,4.5-3.6,8.1-8.1,8.1h-107ZM1418.9,742.2h0s0,0,0,0Z"/>
              </g>
              <g id="Path_16">
                <path class="cls-4" d="M1182.2,261.2c-2.4,0-4.6-1-6.1-2.8-2.9-3.4-2.6-8.5.8-11.4l69.5-60.2.4-.4c5.2-5.2,6.1-13.6,2-19.8-2.3-3.5-5.8-5.9-10-6.7-4.1-.8-8.3,0-11.8,2.3-3.5,2.3-5.9,5.8-6.7,10-.8,4.1,0,8.3,2.3,11.8,1.5,2.2.8,5.2-1.4,6.6-2.2,1.5-5.2.8-6.7-1.4-3.7-5.6-5-12.4-3.7-19,1.4-6.6,5.2-12.3,10.9-16,11.7-7.7,27.4-4.5,35.1,7.2,6.6,10,5.2,23.4-3.2,31.8l-.8.8-.6.5-66,57.2h99c0,0-34.9-30.2-34.9-30.2-2-1.7-2.2-4.8-.5-6.8s4.8-2.2,6.8-.5l37.9,32.8c1.8,1.5,2.8,3.8,2.8,6.1,0,4.5-3.6,8.1-8.1,8.1h-107ZM1288.2,254.1s0,0,0,0h0Z"/>
              </g>
              <g id="Path_17">
                <path class="cls-4" d="M837.6,641.9c-2.4,0-4.6-1-6.1-2.8-2.9-3.4-2.6-8.5.8-11.4l69.5-60.2.4-.4c5.2-5.2,6.1-13.6,2-19.8-4.8-7.2-14.5-9.2-21.8-4.5-7.2,4.8-9.2,14.5-4.5,21.8,1.5,2.2.8,5.2-1.4,6.6-2.2,1.5-5.2.8-6.7-1.4-7.7-11.7-4.5-27.4,7.2-35.1,11.7-7.7,27.4-4.5,35.1,7.2,6.6,10,5.2,23.4-3.2,31.8l-1.4,1.3-66,57.2h99c0,0-34.9-30.2-34.9-30.2-2-1.7-2.2-4.8-.5-6.8,1.7-2,4.8-2.2,6.8-.5l37.9,32.8c1.8,1.5,2.8,3.8,2.8,6.1,0,4.5-3.6,8.1-8.1,8.1h-107ZM943.6,634.8s0,0,0,0h0Z"/>
              </g>
              <g id="Path_18">
                <path class="cls-4" d="M628.9,210.3c-2.4,0-4.6-1-6.1-2.8-2.9-3.4-2.6-8.5.8-11.4l69.4-60.2.4-.4c5.2-5.2,6.1-13.6,2-19.8-4.8-7.2-14.5-9.2-21.8-4.5-3.5,2.3-5.9,5.8-6.7,10-.8,4.1,0,8.3,2.3,11.8,1.5,2.2.8,5.2-1.4,6.6-2.2,1.5-5.2.8-6.6-1.4-3.7-5.6-5-12.4-3.7-19,1.4-6.6,5.2-12.3,10.9-16,11.7-7.7,27.4-4.5,35.1,7.2,6.6,10,5.2,23.4-3.2,31.8l-1.4,1.3-66,57.2h99c0,0-34.9-30.2-34.9-30.2-2-1.7-2.2-4.8-.5-6.8,1.7-2,4.8-2.2,6.8-.5l37.9,32.8c1.8,1.5,2.8,3.8,2.8,6.1,0,4.5-3.6,8.1-8.1,8.1h-107ZM735,203.3s0,0,0,0h0Z"/>
              </g>
            </g>
          </g>
        </g>
      </g>
    </g>
  </g>
</svg>