<?xml version="1.0" encoding="UTF-8"?><svg id="Layer_1" xmlns="http://www.w3.org/2000/svg" viewBox="0 0 250 250"><defs><style>.cls-1{stroke:#65b99c;}.cls-1,.cls-2,.cls-3{stroke-width:3.81px;}.cls-1,.cls-4,.cls-3{stroke-linejoin:round;}.cls-1,.cls-5{fill:#65b99c;}.cls-6{stroke:#fff;stroke-width:8.45px;}.cls-6,.cls-2{stroke-miterlimit:10;}.cls-6,.cls-4,.cls-3{fill:none;}.cls-2{fill:#b9dcd6;stroke:#dceeed;}.cls-4{stroke-width:4.38px;}.cls-4,.cls-3{stroke:#b9dcd6;stroke-linecap:round;}</style></defs><path class="cls-1" d="M208.33,161.39l-122.35,48.7c-5.91,2.35-12.6-.53-14.95-6.44l-28.78-72.3c-2.35-5.91.53-12.6,6.44-14.95l8.23-3.28c3.03-1.21,5.38-3.69,6.42-6.79l2.97-8.89c1.04-3.1,3.38-5.58,6.42-6.79l29.95-11.92c3.06-1.22,6.51-1.01,9.4.56l8.04,4.37c2.9,1.57,6.34,1.78,9.4.56l41.52-16.53c5.91-2.35,12.6.53,14.95,6.44l28.78,72.3c2.35,5.91-.53,12.6-6.44,14.95Z"/><circle class="cls-2" cx="112.64" cy="145.3" r="41.01"/><circle class="cls-5" cx="112.64" cy="145.3" r="29"/><path class="cls-6" d="M95.18,152.25c-3.84-9.64.87-20.57,10.51-24.4"/><line class="cls-3" x1="160.94" y1="94.77" x2="171.35" y2="90.63"/><line class="cls-4" x1="66.07" y1="39.37" x2="75.42" y2="64.13"/><line class="cls-4" x1="109.09" y1="39.1" x2="101.35" y2="64.41"/><line class="cls-4" x1="34.42" y1="71.9" x2="59.35" y2="80.8"/></svg>