<?xml version="1.0" encoding="UTF-8"?><svg id="Layer_1" xmlns="http://www.w3.org/2000/svg" viewBox="0 0 250 250"><defs><style>.cls-1{fill:#dceeed;}.cls-2{fill:#fff;}.cls-3{fill:#65b99c;}.cls-4{fill:#b9dcd6;stroke:#65b99c;stroke-linejoin:round;stroke-width:5.71px;}</style></defs><rect class="cls-4" x="109.26" y="148.92" width="31.48" height="41.96"/><rect class="cls-3" x="29.38" y="50.96" width="191.24" height="123.56" rx="9.47" ry="9.47"/><rect class="cls-3" x="70.39" y="184.57" width="109.21" height="14.47" rx="7.23" ry="7.23"/><rect class="cls-1" x="42.9" y="61.96" width="164.19" height="97.79" rx="7.81" ry="7.81"/><path class="cls-3" d="M119.32,135.26c-1.58,0-2.86-1.28-2.86-2.86v-12.29h-7.61c-1.11,0-2.12-.64-2.59-1.65s-.31-2.19.4-3.04l15.86-18.92c.54-.64,1.33-1.01,2.16-1.02,0,0,.02,0,.03,0,.83,0,1.61.36,2.16.98l16.44,18.92c.73.85.91,2.04.44,3.06-.46,1.02-1.48,1.67-2.6,1.67h-7.61v12.29c0,1.58-1.28,2.86-2.86,2.86h-11.35Z"/><path class="cls-2" d="M124.71,98.34l16.44,18.92h-10.47v15.14h-11.35v-15.14h-10.47l15.86-18.92M124.71,92.62h-.05c-1.67.02-3.25.76-4.33,2.04l-15.86,18.92c-1.43,1.7-1.74,4.07-.8,6.09.94,2.01,2.96,3.3,5.18,3.3h4.76v9.43c0,3.16,2.56,5.71,5.71,5.71h11.35c3.16,0,5.71-2.56,5.71-5.71v-9.43h4.76c2.24,0,4.27-1.31,5.2-3.34.93-2.04.58-4.43-.89-6.12l-16.44-18.92c-1.09-1.25-2.66-1.97-4.31-1.97h0Z"/><circle class="cls-1" cx="125" cy="166.83" r="3.82"/></svg>