<?xml version="1.0" encoding="UTF-8"?><svg id="Layer_1" xmlns="http://www.w3.org/2000/svg" viewBox="0 0 250 250"><defs><style>.cls-1{fill:#dceeed;}.cls-2{fill:#b9dcd6;}.cls-3{fill:#65b99c;}</style></defs><path class="cls-3" d="M90.09,182.14H16.8c-2.35,0-4.39-1.42-5.21-3.62-.82-2.2-.2-4.61,1.57-6.14l47.6-41.2.29-.29c2.03-2.03,3.15-4.74,3.15-7.61s-1.12-5.58-3.15-7.61c-2.03-2.03-4.74-3.15-7.61-3.15s-5.58,1.12-7.61,3.15c-3.6,3.6-4.18,9.29-1.38,13.53,1,1.51.58,3.55-.93,4.55-1.52,1-3.55.58-4.55-.93-4.51-6.84-3.58-16.01,2.22-21.8,6.76-6.76,17.76-6.76,24.52,0,3.28,3.28,5.08,7.63,5.08,12.26s-1.8,8.99-5.08,12.26l-.55.53-45.63,39.49h67.84l-23.91-20.69c-1.37-1.19-1.52-3.26-.33-4.64,1.19-1.37,3.26-1.52,4.64-.33l25.97,22.47c1.77,1.53,2.39,3.95,1.57,6.14s-2.86,3.62-5.21,3.62Z"/><path class="cls-2" d="M160.38,144.05h-73.29c-2.35,0-4.39-1.42-5.21-3.62-.82-2.2-.2-4.61,1.57-6.14l47.6-41.2.29-.29c2.03-2.03,3.15-4.74,3.15-7.61s-1.12-5.58-3.15-7.61c-2.03-2.03-4.74-3.15-7.61-3.15s-5.58,1.12-7.61,3.15c-3.6,3.6-4.18,9.29-1.38,13.53,1,1.51.58,3.55-.93,4.55-1.52,1-3.55.58-4.55-.93-4.51-6.84-3.58-16.01,2.22-21.8,6.76-6.76,17.76-6.76,24.52,0,3.28,3.28,5.08,7.63,5.08,12.26s-1.8,8.99-5.08,12.26l-.55.53-45.63,39.49h67.84l-23.91-20.69c-1.37-1.19-1.52-3.26-.33-4.64,1.19-1.37,3.26-1.52,4.64-.33l25.97,22.47c1.77,1.53,2.39,3.95,1.57,6.14s-2.86,3.62-5.21,3.62Z"/><path class="cls-1" d="M233.2,182.14h-73.29c-2.35,0-4.39-1.42-5.21-3.62-.82-2.2-.2-4.61,1.57-6.14l47.6-41.2.29-.29c2.03-2.03,3.15-4.74,3.15-7.61s-1.12-5.58-3.15-7.61c-2.03-2.03-4.74-3.15-7.61-3.15s-5.58,1.12-7.61,3.15c-3.6,3.6-4.18,9.29-1.38,13.53,1,1.51.58,3.55-.93,4.55-1.52,1-3.55.58-4.55-.93-4.51-6.84-3.58-16.01,2.22-21.8,6.76-6.76,17.76-6.76,24.52,0,3.28,3.28,5.08,7.63,5.08,12.26s-1.8,8.99-5.08,12.26l-.55.53-45.63,39.49h67.84l-23.91-20.69c-1.37-1.19-1.52-3.26-.33-4.64,1.19-1.37,3.26-1.52,4.64-.33l25.97,22.47c1.77,1.53,2.39,3.95,1.57,6.14s-2.86,3.62-5.21,3.62Z"/></svg>