<?xml version="1.0" encoding="UTF-8"?><svg id="Layer_1" xmlns="http://www.w3.org/2000/svg" viewBox="0 0 259.95 276.67"><defs><style>.cls-1{fill:#b9dcd6;}</style></defs><path class="cls-1" d="M244.95,142.47c-8.28,0-15,6.72-15,15v89.2H30v-89.2c0-8.28-6.72-15-15-15s-15,6.72-15,15v104.2c0,8.28,6.72,15,15,15h229.95c8.28,0,15-6.72,15-15v-104.2c0-8.28-6.72-15-15-15Z"/><path class="cls-1" d="M49.43,104.64c2.86,2.55,6.43,3.81,9.99,3.81,4.12,0,8.23-1.69,11.19-5.01l44.37-49.68v122.43c0,8.28,6.72,15,15,15s15-6.72,15-15V53.59l46.76,50.1c5.65,6.05,15.14,6.38,21.2.73,6.06-5.65,6.38-15.14.73-21.2L140.44,4.76c-2.84-3.04-6.81-4.76-10.97-4.76-.05,0-.11,0-.17,0-4.21.05-8.22,1.86-11.02,5.01L48.23,83.46c-5.52,6.18-4.98,15.66,1.2,21.18Z"/></svg>