<?xml version="1.0" encoding="UTF-8"?><svg id="Layer_1" xmlns="http://www.w3.org/2000/svg" viewBox="0 0 193 193"><defs><style>.cls-1{fill:#fff;}.cls-2{fill:#65b99c;}</style></defs><g id="Ellipse_4"><circle class="cls-2" cx="96.5" cy="96.5" r="96.5"/></g><path class="cls-1" d="M135.38,93.64c-3.31,0-6,2.69-6,6v29.23H63.62v-29.23c0-3.31-2.69-6-6-6s-6,2.69-6,6v35.23c0,3.31,2.69,6,6,6h77.75c3.31,0,6-2.69,6-6v-35.23c0-3.31-2.69-6-6-6Z"/><path class="cls-1" d="M72.64,83.99c1.65,0,3.29-.68,4.48-2l13.38-14.98v38.96c0,3.31,2.69,6,6,6s6-2.69,6-6v-39.1l14.2,15.22c2.26,2.42,6.06,2.55,8.48.29,2.42-2.26,2.55-6.06.29-8.48l-24.76-26.53c-1.13-1.22-2.72-1.91-4.39-1.91h-.07c-1.69.02-3.29.75-4.41,2l-23.69,26.53c-2.21,2.47-1.99,6.26.48,8.47,1.14,1.02,2.57,1.52,3.99,1.52Z"/></svg>